<?xml version="1.0" encoding="utf-8"?>
<!-- Generator: Adobe Illustrator 18.0.0, SVG Export Plug-In . SVG Version: 6.00 Build 0)  -->
<!DOCTYPE svg PUBLIC "-//W3C//DTD SVG 1.1//EN" "http://www.w3.org/Graphics/SVG/1.1/DTD/svg11.dtd">
<svg version="1.1" id="Layer_1" xmlns="http://www.w3.org/2000/svg" xmlns:xlink="http://www.w3.org/1999/xlink" x="0px" y="0px"
	 viewBox="0 0 31 28" enable-background="new 0 0 31 28" xml:space="preserve">
<path fill="none" d="M3.9,26.3c-1.2-0.7-8.6-6.1,4.8-18.1C22.8-4.3,28.1,1.1,29.6,3.5h0c0,0,0,0.1,0.1,0.1c0,0.1,0.1,0.1,0.1,0.2
	c0,0,0,0.1,0,0.1C30,4.3,30,4.5,30,4.5s0,0,0,0c0.6,1.7,0.1,3.4-1.3,4l-3.4,1.1c-1.8,0.7-4.2-0.4-5.4-2.5L19.8,7
	c-3.8,1.8-8,4.8-11.4,10l0.3,0.3c1.8,1.5,2.5,4.1,1.6,5.7l-1.8,2.9C7.6,27.5,5.6,27.7,3.9,26.3z"/>
</svg>
