<?xml version="1.0" encoding="utf-8"?>
<!-- Generator: Adobe Illustrator 18.0.0, SVG Export Plug-In . SVG Version: 6.00 Build 0)  -->
<!DOCTYPE svg PUBLIC "-//W3C//DTD SVG 1.1//EN" "http://www.w3.org/Graphics/SVG/1.1/DTD/svg11.dtd">
<svg version="1.1" id="Layer_1" xmlns="http://www.w3.org/2000/svg" xmlns:xlink="http://www.w3.org/1999/xlink" x="0px" y="0px"
	 viewBox="0 0 20 12" enable-background="new 0 0 20 12" xml:space="preserve">
<path fill="none" d="M18.1,1.7h-5V0.5h5L18.1,1.7L18.1,1.7z M9.7,6.6c0.3,0.5,0.5,1.1,0.5,1.8c0,0.7-0.2,1.4-0.6,1.9
	c-0.2,0.4-0.5,0.7-0.9,0.9c-0.4,0.3-0.9,0.5-1.4,0.6C6.8,11.9,6.2,12,5.6,12H0V0h6c1.5,0,2.6,0.4,3.2,1.3c0.4,0.5,0.6,1.1,0.6,1.8
	c0,0.7-0.2,1.3-0.6,1.8C9,5.1,8.7,5.4,8.3,5.6C8.9,5.8,9.4,6.1,9.7,6.6z M2.9,4.7h2.6c0.5,0,1-0.1,1.3-0.3c0.3-0.2,0.5-0.5,0.5-1.1
	c0-0.6-0.2-0.9-0.7-1.1C6.3,2.1,5.8,2.1,5.2,2.1H2.9V4.7z M7.6,8.2c0-0.6-0.3-1.1-0.8-1.3C6.5,6.8,6.1,6.7,5.5,6.7H2.9v3.2h2.6
	c0.5,0,1-0.1,1.3-0.2C7.3,9.4,7.6,8.9,7.6,8.2z M19.9,6.3C20,6.6,20,7.2,20,8h-6.5c0,0.9,0.3,1.5,0.9,1.8c0.4,0.2,0.8,0.3,1.3,0.3
	c0.5,0,1-0.1,1.3-0.4c0.2-0.1,0.3-0.3,0.5-0.6h2.4c-0.1,0.5-0.3,1-0.9,1.6c-0.8,0.8-1.9,1.3-3.4,1.3c-1.2,0-2.2-0.4-3.1-1.1
	c-0.9-0.7-1.4-1.9-1.4-3.4c0-1.5,0.4-2.6,1.2-3.4c0.8-0.8,1.9-1.2,3.2-1.2c0.8,0,1.5,0.1,2.1,0.4c0.6,0.3,1.1,0.7,1.5,1.3
	C19.6,5,19.8,5.6,19.9,6.3z M17.6,6.5c0-0.6-0.3-1-0.6-1.4c-0.4-0.3-0.8-0.5-1.4-0.5c-0.6,0-1.1,0.2-1.4,0.5
	c-0.3,0.3-0.5,0.8-0.6,1.3H17.6L17.6,6.5z"/>
</svg>
