<?xml version="1.0" encoding="utf-8"?>
<!-- Generator: Adobe Illustrator 18.0.0, SVG Export Plug-In . SVG Version: 6.00 Build 0)  -->
<!DOCTYPE svg PUBLIC "-//W3C//DTD SVG 1.1//EN" "http://www.w3.org/Graphics/SVG/1.1/DTD/svg11.dtd">
<svg version="1.1" id="Layer_1" xmlns="http://www.w3.org/2000/svg" xmlns:xlink="http://www.w3.org/1999/xlink" x="0px" y="0px"
	 viewBox="0 0 32 32" enable-background="new 0 0 32 32" xml:space="preserve">
<path fill-rule="evenodd" clip-rule="evenodd" fill="#191717" d="M16,0.2C7.2,0.2,0,7.5,0,16.4c0,7.1,4.6,13.2,11,15.3
	c0.8,0.1,1.1-0.4,1.1-0.8c0-0.4,0-1.4,0-2.8c-4.5,1-5.4-2.2-5.4-2.2c-0.7-1.9-1.8-2.4-1.8-2.4c-1.5-1,0.1-1,0.1-1
	c1.6,0.1,2.5,1.7,2.5,1.7c1.4,2.5,3.7,1.8,4.7,1.3c0.1-1,0.6-1.8,1-2.2c-3.6-0.4-7.3-1.8-7.3-8c0-1.8,0.6-3.2,1.6-4.3
	c-0.2-0.4-0.7-2.1,0.2-4.3c0,0,1.3-0.4,4.4,1.7c1.3-0.4,2.6-0.5,4-0.5c1.4,0,2.7,0.2,4,0.5c3.1-2.1,4.4-1.7,4.4-1.7
	c0.9,2.2,0.3,3.9,0.2,4.3c1,1.1,1.6,2.6,1.6,4.3c0,6.2-3.7,7.6-7.3,8c0.6,0.5,1.1,1.5,1.1,3c0,2.2,0,3.9,0,4.4
	c0,0.4,0.3,0.9,1.1,0.8C27.5,29.6,32,23.5,32,16.4C32,7.5,24.9,0.2,16,0.2z"/>
</svg>
