<?xml version="1.0" encoding="utf-8"?>
<!-- Generator: Adobe Illustrator 18.0.0, SVG Export Plug-In . SVG Version: 6.00 Build 0)  -->
<!DOCTYPE svg PUBLIC "-//W3C//DTD SVG 1.1//EN" "http://www.w3.org/Graphics/SVG/1.1/DTD/svg11.dtd">
<svg version="1.1" id="Layer_1" xmlns="http://www.w3.org/2000/svg" xmlns:xlink="http://www.w3.org/1999/xlink" x="0px" y="0px"
	 viewBox="0 0 57 55" enable-background="new 0 0 57 55" xml:space="preserve">
<path fill="none" d="M44.6,41.1c-7.5-2.7-9.9-5.1-9.9-10c0-3,2.3-2,3.3-7.5c0.4-2.3,2.4,0,2.8-5.2c0-2.1-1.1-2.6-1.1-2.6
	s0.6-3,0.8-5.4C40.8,7.5,38.9,0,28.5,0c-10.4,0-12.3,7.5-12,10.5c0.2,2.3,0.8,5.4,0.8,5.4s-1.1,0.5-1.1,2.6c0.4,5.2,2.4,2.9,2.8,5.2
	c1,5.5,3.3,4.5,3.3,7.5c0,5-2.4,7.3-9.9,10C4.9,43.8,0,46.7,0,48.6C0,50.5,0,55,0,55h28.5H57c0,0,0-4.5,0-6.4
	C57,46.7,52.1,43.8,44.6,41.1z"/>
</svg>
