<?xml version="1.0" encoding="utf-8"?>
<!-- Generator: Adobe Illustrator 18.0.0, SVG Export Plug-In . SVG Version: 6.00 Build 0)  -->
<!DOCTYPE svg PUBLIC "-//W3C//DTD SVG 1.1//EN" "http://www.w3.org/Graphics/SVG/1.1/DTD/svg11.dtd">
<svg version="1.1" id="Layer_1" xmlns="http://www.w3.org/2000/svg" xmlns:xlink="http://www.w3.org/1999/xlink" x="0px" y="0px"
	 viewBox="0 0 26 26" enable-background="new 0 0 26 26" xml:space="preserve">
<path fill="none" d="M25.7,10.4c-0.2-0.8-0.4-1.7-0.8-2.4c-0.3-0.8-0.7-1.5-1.2-2.2c-0.5-0.7-1-1.3-1.6-1.9
	c-0.6-0.6-1.2-1.1-1.9-1.6c-0.7-0.5-1.4-0.9-2.2-1.2c-0.8-0.3-1.6-0.6-2.4-0.8C14.8,0.1,13.9,0,13,0c-0.9,0-1.8,0.1-2.6,0.3
	C9.5,0.4,8.7,0.7,7.9,1C7.2,1.3,6.4,1.8,5.7,2.2C5,2.7,4.4,3.2,3.8,3.8C3.2,4.4,2.7,5,2.2,5.7C1.8,6.4,1.3,7.2,1,7.9
	c-0.3,0.8-0.6,1.6-0.8,2.4C0.1,11.2,0,12.1,0,13c0,0.9,0.1,1.8,0.3,2.6c0.2,0.8,0.4,1.7,0.8,2.4c0.3,0.8,0.7,1.5,1.2,2.2
	c0.5,0.7,1,1.3,1.6,1.9c0.6,0.6,1.2,1.1,1.9,1.6c0.7,0.5,1.4,0.9,2.2,1.2c0.8,0.3,1.6,0.6,2.4,0.8c0.9,0.2,1.7,0.3,2.6,0.3
	c0.9,0,1.8-0.1,2.6-0.3c0.8-0.2,1.7-0.4,2.4-0.8c0.8-0.3,1.5-0.7,2.2-1.2c0.7-0.5,1.3-1,1.9-1.6c0.6-0.6,1.1-1.2,1.6-1.9
	c0.5-0.7,0.9-1.4,1.2-2.2c0.3-0.8,0.6-1.6,0.8-2.4c0.2-0.9,0.3-1.7,0.3-2.6C26,12.1,25.9,11.2,25.7,10.4z M13,1.9
	c2.8,0,5.4,1,7.3,2.8c0,0-1.6,2.5-5.8,4c-1.9-3.5-4-6.3-4.1-6.5C11.2,2,12.1,1.9,13,1.9z M10.3,2.2L10.3,2.2
	C10.3,2.2,10.3,2.2,10.3,2.2C10.3,2.2,10.3,2.2,10.3,2.2z M8.3,3c0.1,0.2,2.2,3,4.1,6.4c-5.3,1.4-10,1.4-10.2,1.4
	C2.9,7.3,5.2,4.4,8.3,3z M4.7,20.4c-1.8-2-2.8-4.6-2.8-7.4c0-0.1,0-0.2,0-0.3c0.2,0,5.7,0.1,11.4-1.6c0.3,0.6,0.6,1.3,0.9,1.9
	c-0.1,0-0.3,0.1-0.4,0.1C7.8,15,4.7,20.4,4.7,20.4z M13,24.1c-2.6,0-4.9-0.9-6.8-2.4c0,0,0,0,0,0s-0.1-0.1-0.2-0.2
	c0.1,0.1,0.2,0.1,0.3,0.2c0.1-0.2,2.3-4.7,8.7-6.9c0,0,0,0,0.1,0c1.6,4.1,2.2,7.5,2.4,8.4C16,23.8,14.5,24.1,13,24.1z M19.2,22.2
	c-0.1-0.7-0.7-3.9-2.2-7.9c3.6-0.6,6.7,0.4,6.9,0.5C23.5,17.9,21.7,20.5,19.2,22.2z M16.4,12.5c-0.1-0.2-0.2-0.4-0.2-0.6
	c-0.2-0.5-0.5-1.1-0.7-1.6c4.4-1.8,6.2-4.4,6.2-4.4c1.6,1.9,2.5,4.3,2.5,6.9C23.9,12.9,20.2,12,16.4,12.5z"/>
</svg>
