<?xml version="1.0" encoding="utf-8"?>
<!-- Generator: Adobe Illustrator 18.0.0, SVG Export Plug-In . SVG Version: 6.00 Build 0)  -->
<!DOCTYPE svg PUBLIC "-//W3C//DTD SVG 1.1//EN" "http://www.w3.org/Graphics/SVG/1.1/DTD/svg11.dtd">
<svg version="1.1" id="Layer_1" xmlns="http://www.w3.org/2000/svg" xmlns:xlink="http://www.w3.org/1999/xlink" x="0px" y="0px"
	 viewBox="0 0 11 17" enable-background="new 0 0 11 17" xml:space="preserve">
<path fill="none" d="M10.6,7.5L3.3,0.4C3,0.1,2.7,0,2.3,0c-0.4,0-0.7,0.1-1,0.4L0.4,1.2C0.1,1.5,0,1.8,0,2.2c0,0.4,0.1,0.7,0.4,1
	l5.4,5.3l-5.4,5.3c-0.3,0.3-0.4,0.6-0.4,1c0,0.4,0.1,0.7,0.4,1l0.9,0.8c0.3,0.3,0.6,0.4,1,0.4c0.4,0,0.7-0.1,1-0.4l7.3-7.1
	c0.3-0.3,0.4-0.6,0.4-1C11,8.1,10.9,7.8,10.6,7.5z"/>
</svg>
