<?xml version="1.0" encoding="utf-8"?>
<!-- Generator: Adobe Illustrator 18.0.0, SVG Export Plug-In . SVG Version: 6.00 Build 0)  -->
<!DOCTYPE svg PUBLIC "-//W3C//DTD SVG 1.1//EN" "http://www.w3.org/Graphics/SVG/1.1/DTD/svg11.dtd">
<svg version="1.1" id="Layer_1" xmlns="http://www.w3.org/2000/svg" xmlns:xlink="http://www.w3.org/1999/xlink" x="0px" y="0px"
	 viewBox="0 0 11 17" enable-background="new 0 0 11 17" xml:space="preserve">
<path fill="none" d="M0.4,7.5l7.3-7.1C8,0.1,8.3,0,8.7,0c0.4,0,0.7,0.1,1,0.4l0.9,0.8c0.3,0.3,0.4,0.6,0.4,1c0,0.4-0.1,0.7-0.4,1
	L5.1,8.5l5.4,5.3c0.3,0.3,0.4,0.6,0.4,1c0,0.4-0.1,0.7-0.4,1l-0.9,0.8c-0.3,0.3-0.6,0.4-1,0.4c-0.4,0-0.7-0.1-1-0.4L0.4,9.5
	C0.1,9.2,0,8.9,0,8.5C0,8.1,0.1,7.8,0.4,7.5z"/>
</svg>
