<?xml version="1.0" encoding="utf-8"?>
<!-- Generator: Adobe Illustrator 18.0.0, SVG Export Plug-In . SVG Version: 6.00 Build 0)  -->
<!DOCTYPE svg PUBLIC "-//W3C//DTD SVG 1.1//EN" "http://www.w3.org/Graphics/SVG/1.1/DTD/svg11.dtd">
<svg version="1.1" id="Layer_1" xmlns="http://www.w3.org/2000/svg" xmlns:xlink="http://www.w3.org/1999/xlink" x="0px" y="0px"
	 viewBox="0 0 24 19" enable-background="new 0 0 24 19" xml:space="preserve">
<path fill="none" d="M23.3,0.4c-1,0.5-2,0.9-3.1,1.2C19.3,0.6,18,0,16.6,0c-2.7,0-4.9,2.1-4.9,4.8c0,0.4,0,0.7,0.1,1.1
	c-4.1-0.2-7.7-2.1-10.1-5C1.2,1.6,1,2.4,1,3.3c0,1.7,0.9,3.1,2.2,4C2.4,7.3,1.6,7,1,6.7v0.1c0,2.3,1.7,4.3,3.9,4.7
	c-0.4,0.1-0.8,0.2-1.3,0.2c-0.3,0-0.6,0-0.9-0.1c0.6,1.9,2.4,3.3,4.6,3.3c-1.7,1.3-3.8,2.1-6.1,2.1c-0.4,0-0.8,0-1.2-0.1
	C2.2,18.2,4.8,19,7.5,19c9.1,0,14-7.3,14-13.7l0-0.6c1-0.7,1.8-1.5,2.5-2.5c-0.9,0.4-1.8,0.6-2.8,0.8C22.2,2.4,23,1.5,23.3,0.4z"/>
</svg>
