<svg xmlns="http://www.w3.org/2000/svg" style="display:none"><symbol id="icon-behance" viewBox="0 0 20 12">
<path fill="none" d="M18.1,1.7h-5V0.5h5L18.1,1.7L18.1,1.7z M9.7,6.6c0.3,0.5,0.5,1.1,0.5,1.8c0,0.7-0.2,1.4-0.6,1.9
	c-0.2,0.4-0.5,0.7-0.9,0.9c-0.4,0.3-0.9,0.5-1.4,0.6C6.8,11.9,6.2,12,5.6,12H0V0h6c1.5,0,2.6,0.4,3.2,1.3c0.4,0.5,0.6,1.1,0.6,1.8
	c0,0.7-0.2,1.3-0.6,1.8C9,5.1,8.7,5.4,8.3,5.6C8.9,5.8,9.4,6.1,9.7,6.6z M2.9,4.7h2.6c0.5,0,1-0.1,1.3-0.3c0.3-0.2,0.5-0.5,0.5-1.1
	c0-0.6-0.2-0.9-0.7-1.1C6.3,2.1,5.8,2.1,5.2,2.1H2.9V4.7z M7.6,8.2c0-0.6-0.3-1.1-0.8-1.3C6.5,6.8,6.1,6.7,5.5,6.7H2.9v3.2h2.6
	c0.5,0,1-0.1,1.3-0.2C7.3,9.4,7.6,8.9,7.6,8.2z M19.9,6.3C20,6.6,20,7.2,20,8h-6.5c0,0.9,0.3,1.5,0.9,1.8c0.4,0.2,0.8,0.3,1.3,0.3
	c0.5,0,1-0.1,1.3-0.4c0.2-0.1,0.3-0.3,0.5-0.6h2.4c-0.1,0.5-0.3,1-0.9,1.6c-0.8,0.8-1.9,1.3-3.4,1.3c-1.2,0-2.2-0.4-3.1-1.1
	c-0.9-0.7-1.4-1.9-1.4-3.4c0-1.5,0.4-2.6,1.2-3.4c0.8-0.8,1.9-1.2,3.2-1.2c0.8,0,1.5,0.1,2.1,0.4c0.6,0.3,1.1,0.7,1.5,1.3
	C19.6,5,19.8,5.6,19.9,6.3z M17.6,6.5c0-0.6-0.3-1-0.6-1.4c-0.4-0.3-0.8-0.5-1.4-0.5c-0.6,0-1.1,0.2-1.4,0.5
	c-0.3,0.3-0.5,0.8-0.6,1.3H17.6L17.6,6.5z"/>
</symbol><symbol id="icon-left" viewBox="0 0 11 17">
<path fill="none" d="M0.4,7.5l7.3-7.1C8,0.1,8.3,0,8.7,0c0.4,0,0.7,0.1,1,0.4l0.9,0.8c0.3,0.3,0.4,0.6,0.4,1c0,0.4-0.1,0.7-0.4,1
	L5.1,8.5l5.4,5.3c0.3,0.3,0.4,0.6,0.4,1c0,0.4-0.1,0.7-0.4,1l-0.9,0.8c-0.3,0.3-0.6,0.4-1,0.4c-0.4,0-0.7-0.1-1-0.4L0.4,9.5
	C0.1,9.2,0,8.9,0,8.5C0,8.1,0.1,7.8,0.4,7.5z"/>
</symbol><symbol id="icon-mail" viewBox="0 0 27 19">
<path fill="none" d="M10.2,10.4l-9.6,8.1C1,18.8,1.4,19,1.9,19h23.1c0.5,0,1-0.2,1.3-0.5l-9.5-8.1l-3.3,2.9L10.2,10.4z"/>
<path fill="none" d="M25.1,0H1.9C1.4,0,1,0.2,0.6,0.5l12.9,10.9L26.4,0.5C26,0.2,25.6,0,25.1,0z"/>
<path fill="none" d="M0,17.5l9.3-7.8L0,1.7V17.5z"/>
<path fill="none" d="M27,17.5V1.7l-9.3,8L27,17.5z"/>
</symbol><symbol id="icon-marker" viewBox="0 0 10 10">
<path fill-rule="evenodd" clip-rule="evenodd" fill="none" d="M9.8,4.6c0.2,0.2,0.2,0.5,0,0.7L5.4,9.8C5.2,10,4.8,10,4.6,9.8
	L0.2,5.4c-0.2-0.2-0.2-0.5,0-0.7l4.5-4.5c0.2-0.2,0.5-0.2,0.7,0L9.8,4.6z"/>
</symbol><symbol id="icon-profile" viewBox="0 0 57 55">
<path fill="none" d="M44.6,41.1c-7.5-2.7-9.9-5.1-9.9-10c0-3,2.3-2,3.3-7.5c0.4-2.3,2.4,0,2.8-5.2c0-2.1-1.1-2.6-1.1-2.6
	s0.6-3,0.8-5.4C40.8,7.5,38.9,0,28.5,0c-10.4,0-12.3,7.5-12,10.5c0.2,2.3,0.8,5.4,0.8,5.4s-1.1,0.5-1.1,2.6c0.4,5.2,2.4,2.9,2.8,5.2
	c1,5.5,3.3,4.5,3.3,7.5c0,5-2.4,7.3-9.9,10C4.9,43.8,0,46.7,0,48.6C0,50.5,0,55,0,55h28.5H57c0,0,0-4.5,0-6.4
	C57,46.7,52.1,43.8,44.6,41.1z"/>
</symbol><symbol id="icon-right" viewBox="0 0 11 17">
<path fill="none" d="M10.6,7.5L3.3,0.4C3,0.1,2.7,0,2.3,0c-0.4,0-0.7,0.1-1,0.4L0.4,1.2C0.1,1.5,0,1.8,0,2.2c0,0.4,0.1,0.7,0.4,1
	l5.4,5.3l-5.4,5.3c-0.3,0.3-0.4,0.6-0.4,1c0,0.4,0.1,0.7,0.4,1l0.9,0.8c0.3,0.3,0.6,0.4,1,0.4c0.4,0,0.7-0.1,1-0.4l7.3-7.1
	c0.3-0.3,0.4-0.6,0.4-1C11,8.1,10.9,7.8,10.6,7.5z"/>
</symbol><symbol id="icon-tel" viewBox="0 0 31 28">
<path fill="none" d="M3.9,26.3c-1.2-0.7-8.6-6.1,4.8-18.1C22.8-4.3,28.1,1.1,29.6,3.5h0c0,0,0,0.1,0.1,0.1c0,0.1,0.1,0.1,0.1,0.2
	c0,0,0,0.1,0,0.1C30,4.3,30,4.5,30,4.5s0,0,0,0c0.6,1.7,0.1,3.4-1.3,4l-3.4,1.1c-1.8,0.7-4.2-0.4-5.4-2.5L19.8,7
	c-3.8,1.8-8,4.8-11.4,10l0.3,0.3c1.8,1.5,2.5,4.1,1.6,5.7l-1.8,2.9C7.6,27.5,5.6,27.7,3.9,26.3z"/>
</symbol><symbol id="icon-twitter" viewBox="0 0 24 19">
<path fill="none" d="M23.3,0.4c-1,0.5-2,0.9-3.1,1.2C19.3,0.6,18,0,16.6,0c-2.7,0-4.9,2.1-4.9,4.8c0,0.4,0,0.7,0.1,1.1
	c-4.1-0.2-7.7-2.1-10.1-5C1.2,1.6,1,2.4,1,3.3c0,1.7,0.9,3.1,2.2,4C2.4,7.3,1.6,7,1,6.7v0.1c0,2.3,1.7,4.3,3.9,4.7
	c-0.4,0.1-0.8,0.2-1.3,0.2c-0.3,0-0.6,0-0.9-0.1c0.6,1.9,2.4,3.3,4.6,3.3c-1.7,1.3-3.8,2.1-6.1,2.1c-0.4,0-0.8,0-1.2-0.1
	C2.2,18.2,4.8,19,7.5,19c9.1,0,14-7.3,14-13.7l0-0.6c1-0.7,1.8-1.5,2.5-2.5c-0.9,0.4-1.8,0.6-2.8,0.8C22.2,2.4,23,1.5,23.3,0.4z"/>
</symbol><symbol id="icon" viewBox="0 0 26 26">
<path fill="none" d="M25.7,10.4c-0.2-0.8-0.4-1.7-0.8-2.4c-0.3-0.8-0.7-1.5-1.2-2.2c-0.5-0.7-1-1.3-1.6-1.9
	c-0.6-0.6-1.2-1.1-1.9-1.6c-0.7-0.5-1.4-0.9-2.2-1.2c-0.8-0.3-1.6-0.6-2.4-0.8C14.8,0.1,13.9,0,13,0c-0.9,0-1.8,0.1-2.6,0.3
	C9.5,0.4,8.7,0.7,7.9,1C7.2,1.3,6.4,1.8,5.7,2.2C5,2.7,4.4,3.2,3.8,3.8C3.2,4.4,2.7,5,2.2,5.7C1.8,6.4,1.3,7.2,1,7.9
	c-0.3,0.8-0.6,1.6-0.8,2.4C0.1,11.2,0,12.1,0,13c0,0.9,0.1,1.8,0.3,2.6c0.2,0.8,0.4,1.7,0.8,2.4c0.3,0.8,0.7,1.5,1.2,2.2
	c0.5,0.7,1,1.3,1.6,1.9c0.6,0.6,1.2,1.1,1.9,1.6c0.7,0.5,1.4,0.9,2.2,1.2c0.8,0.3,1.6,0.6,2.4,0.8c0.9,0.2,1.7,0.3,2.6,0.3
	c0.9,0,1.8-0.1,2.6-0.3c0.8-0.2,1.7-0.4,2.4-0.8c0.8-0.3,1.5-0.7,2.2-1.2c0.7-0.5,1.3-1,1.9-1.6c0.6-0.6,1.1-1.2,1.6-1.9
	c0.5-0.7,0.9-1.4,1.2-2.2c0.3-0.8,0.6-1.6,0.8-2.4c0.2-0.9,0.3-1.7,0.3-2.6C26,12.1,25.9,11.2,25.7,10.4z M13,1.9
	c2.8,0,5.4,1,7.3,2.8c0,0-1.6,2.5-5.8,4c-1.9-3.5-4-6.3-4.1-6.5C11.2,2,12.1,1.9,13,1.9z M10.3,2.2L10.3,2.2
	C10.3,2.2,10.3,2.2,10.3,2.2C10.3,2.2,10.3,2.2,10.3,2.2z M8.3,3c0.1,0.2,2.2,3,4.1,6.4c-5.3,1.4-10,1.4-10.2,1.4
	C2.9,7.3,5.2,4.4,8.3,3z M4.7,20.4c-1.8-2-2.8-4.6-2.8-7.4c0-0.1,0-0.2,0-0.3c0.2,0,5.7,0.1,11.4-1.6c0.3,0.6,0.6,1.3,0.9,1.9
	c-0.1,0-0.3,0.1-0.4,0.1C7.8,15,4.7,20.4,4.7,20.4z M13,24.1c-2.6,0-4.9-0.9-6.8-2.4c0,0,0,0,0,0s-0.1-0.1-0.2-0.2
	c0.1,0.1,0.2,0.1,0.3,0.2c0.1-0.2,2.3-4.7,8.7-6.9c0,0,0,0,0.1,0c1.6,4.1,2.2,7.5,2.4,8.4C16,23.8,14.5,24.1,13,24.1z M19.2,22.2
	c-0.1-0.7-0.7-3.9-2.2-7.9c3.6-0.6,6.7,0.4,6.9,0.5C23.5,17.9,21.7,20.5,19.2,22.2z M16.4,12.5c-0.1-0.2-0.2-0.4-0.2-0.6
	c-0.2-0.5-0.5-1.1-0.7-1.6c4.4-1.8,6.2-4.4,6.2-4.4c1.6,1.9,2.5,4.3,2.5,6.9C23.9,12.9,20.2,12,16.4,12.5z"/>
</symbol></svg>