<svg xmlns="http://www.w3.org/2000/svg"><symbol id="icon-behance" viewBox="0 0 20 12"><path fill="none" d="M18.1 1.7h-5V.5h5v1.2zM9.7 6.6c.3.5.5 1.1.5 1.8s-.2 1.4-.6 1.9c-.2.4-.5.7-.9.9-.4.3-.9.5-1.4.6-.5.1-1.1.2-1.7.2H0V0h6c1.5 0 2.6.4 3.2 1.3.4.5.6 1.1.6 1.8s-.2 1.3-.6 1.8c-.2.2-.5.5-.9.7.6.2 1.1.5 1.4 1zM2.9 4.7h2.6c.5 0 1-.1 1.3-.3.3-.2.5-.5.5-1.1 0-.6-.2-.9-.7-1.1-.3-.1-.8-.1-1.4-.1H2.9v2.6zm4.7 3.5c0-.6-.3-1.1-.8-1.3-.3-.1-.7-.2-1.3-.2H2.9v3.2h2.6c.5 0 1-.1 1.3-.2.5-.3.8-.8.8-1.5zm12.3-1.9c.1.3.1.9.1 1.7h-6.5c0 .9.3 1.5.9 1.8.4.2.8.3 1.3.3s1-.1 1.3-.4c.2-.1.3-.3.5-.6h2.4c-.1.5-.3 1-.9 1.6-.8.8-1.9 1.3-3.4 1.3-1.2 0-2.2-.4-3.1-1.1-.9-.7-1.4-1.9-1.4-3.4s.4-2.6 1.2-3.4c.8-.8 1.9-1.2 3.2-1.2.8 0 1.5.1 2.1.4.6.3 1.1.7 1.5 1.3.5.4.7 1 .8 1.7zm-2.3.2c0-.6-.3-1-.6-1.4-.4-.3-.8-.5-1.4-.5-.6 0-1.1.2-1.4.5-.3.3-.5.8-.6 1.3h4v.1z"/></symbol><symbol id="icon-left" viewBox="0 0 11 17"><path fill="none" d="M.4 7.5L7.7.4c.3-.3.6-.4 1-.4s.7.1 1 .4l.9.8c.3.3.4.6.4 1s-.1.7-.4 1L5.1 8.5l5.4 5.3c.3.3.4.6.4 1s-.1.7-.4 1l-.9.8c-.3.3-.6.4-1 .4s-.7-.1-1-.4L.4 9.5c-.3-.3-.4-.6-.4-1s.1-.7.4-1z"/></symbol><symbol id="icon-mail" viewBox="0 0 27 19"><path fill="none" d="M10.2 10.4L.6 18.5c.4.3.8.5 1.3.5H25c.5 0 1-.2 1.3-.5l-9.5-8.1-3.3 2.9-3.3-2.9zM25.1 0H1.9C1.4 0 1 .2.6.5l12.9 10.9L26.4.5c-.4-.3-.8-.5-1.3-.5zM0 17.5l9.3-7.8-9.3-8v15.8zM27 17.5V1.7l-9.3 8 9.3 7.8z"/></symbol><symbol id="icon-marker" viewBox="0 0 10 10"><path fill-rule="evenodd" clip-rule="evenodd" fill="none" d="M9.8 4.6c.2.2.2.5 0 .7L5.4 9.8c-.2.2-.6.2-.8 0L.2 5.4c-.2-.2-.2-.5 0-.7L4.7.2c.2-.2.5-.2.7 0l4.4 4.4z"/></symbol><symbol id="icon-profile" viewBox="0 0 57 55"><path fill="none" d="M44.6 41.1c-7.5-2.7-9.9-5.1-9.9-10 0-3 2.3-2 3.3-7.5.4-2.3 2.4 0 2.8-5.2 0-2.1-1.1-2.6-1.1-2.6s.6-3 .8-5.4C40.8 7.5 38.9 0 28.5 0s-12.3 7.5-12 10.5c.2 2.3.8 5.4.8 5.4s-1.1.5-1.1 2.6c.4 5.2 2.4 2.9 2.8 5.2 1 5.5 3.3 4.5 3.3 7.5 0 5-2.4 7.3-9.9 10C4.9 43.8 0 46.7 0 48.6V55h57v-6.4c0-1.9-4.9-4.8-12.4-7.5z"/></symbol><symbol id="icon-right" viewBox="0 0 11 17"><path fill="none" d="M10.6 7.5L3.3.4C3 .1 2.7 0 2.3 0s-.7.1-1 .4l-.9.8c-.3.3-.4.6-.4 1s.1.7.4 1l5.4 5.3-5.4 5.3c-.3.3-.4.6-.4 1s.1.7.4 1l.9.8c.3.3.6.4 1 .4s.7-.1 1-.4l7.3-7.1c.3-.3.4-.6.4-1s-.1-.7-.4-1z"/></symbol><symbol id="icon-tel" viewBox="0 0 31 28"><path fill="none" d="M3.9 26.3c-1.2-.7-8.6-6.1 4.8-18.1C22.8-4.3 28.1 1.1 29.6 3.5c0 0 0 .1.1.1 0 .1.1.1.1.2v.1c.2.4.2.6.2.6.6 1.7.1 3.4-1.3 4l-3.4 1.1c-1.8.7-4.2-.4-5.4-2.5l-.1-.1c-3.8 1.8-8 4.8-11.4 10l.3.3c1.8 1.5 2.5 4.1 1.6 5.7l-1.8 2.9c-.9 1.6-2.9 1.8-4.6.4z"/></symbol><symbol id="icon-twitter" viewBox="0 0 24 19"><path fill="none" d="M23.3.4c-1 .5-2 .9-3.1 1.2C19.3.6 18 0 16.6 0c-2.7 0-4.9 2.1-4.9 4.8 0 .4 0 .7.1 1.1-4.1-.2-7.7-2.1-10.1-5-.5.7-.7 1.5-.7 2.4 0 1.7.9 3.1 2.2 4-.8 0-1.6-.3-2.2-.6v.1c0 2.3 1.7 4.3 3.9 4.7-.4.1-.8.2-1.3.2-.3 0-.6 0-.9-.1.6 1.9 2.4 3.3 4.6 3.3C5.6 16.2 3.5 17 1.2 17c-.4 0-.8 0-1.2-.1C2.2 18.2 4.8 19 7.5 19c9.1 0 14-7.3 14-13.7v-.6c1-.7 1.8-1.5 2.5-2.5-.9.4-1.8.6-2.8.8 1-.6 1.8-1.5 2.1-2.6z"/></symbol><symbol id="icon" viewBox="0 0 26 26"><path fill="none" d="M25.7 10.4c-.2-.8-.4-1.7-.8-2.4-.3-.8-.7-1.5-1.2-2.2-.5-.7-1-1.3-1.6-1.9-.6-.6-1.2-1.1-1.9-1.6s-1.4-.9-2.2-1.2c-.8-.3-1.6-.6-2.4-.8C14.8.1 13.9 0 13 0c-.9 0-1.8.1-2.6.3-.9.1-1.7.4-2.5.7-.7.3-1.5.8-2.2 1.2-.7.5-1.3 1-1.9 1.6-.6.6-1.1 1.2-1.6 1.9-.4.7-.9 1.5-1.2 2.2-.3.8-.6 1.6-.8 2.4-.1.9-.2 1.8-.2 2.7 0 .9.1 1.8.3 2.6.2.8.4 1.7.8 2.4.3.8.7 1.5 1.2 2.2.5.7 1 1.3 1.6 1.9.6.6 1.2 1.1 1.9 1.6s1.4.9 2.2 1.2c.8.3 1.6.6 2.4.8.9.2 1.7.3 2.6.3.9 0 1.8-.1 2.6-.3.8-.2 1.7-.4 2.4-.8.8-.3 1.5-.7 2.2-1.2.7-.5 1.3-1 1.9-1.6.6-.6 1.1-1.2 1.6-1.9s.9-1.4 1.2-2.2c.3-.8.6-1.6.8-2.4.2-.9.3-1.7.3-2.6 0-.9-.1-1.8-.3-2.6zM13 1.9c2.8 0 5.4 1 7.3 2.8 0 0-1.6 2.5-5.8 4-1.9-3.5-4-6.3-4.1-6.5.8-.2 1.7-.3 2.6-.3zm-2.7.3zm-2 .8c.1.2 2.2 3 4.1 6.4-5.3 1.4-10 1.4-10.2 1.4.7-3.5 3-6.4 6.1-7.8zM4.7 20.4c-1.8-2-2.8-4.6-2.8-7.4v-.3c.2 0 5.7.1 11.4-1.6.3.6.6 1.3.9 1.9-.1 0-.3.1-.4.1-6 1.9-9.1 7.3-9.1 7.3zm8.3 3.7c-2.6 0-4.9-.9-6.8-2.4s-.1-.1-.2-.2c.1.1.2.1.3.2.1-.2 2.3-4.7 8.7-6.9h.1c1.6 4.1 2.2 7.5 2.4 8.4-1.5.6-3 .9-4.5.9zm6.2-1.9c-.1-.7-.7-3.9-2.2-7.9 3.6-.6 6.7.4 6.9.5-.4 3.1-2.2 5.7-4.7 7.4zm-2.8-9.7c-.1-.2-.2-.4-.2-.6-.2-.5-.5-1.1-.7-1.6 4.4-1.8 6.2-4.4 6.2-4.4 1.6 1.9 2.5 4.3 2.5 6.9-.3.1-4-.8-7.8-.3z"/></symbol></svg>